<?xml version="1.0" encoding="utf-8"?>
<!-- Generator: Adobe Illustrator 26.0.1, SVG Export Plug-In . SVG Version: 6.00 Build 0)  -->
<svg version="1.1" xmlns="http://www.w3.org/2000/svg" xmlns:xlink="http://www.w3.org/1999/xlink" x="0px" y="0px"
	 viewBox="0 0 412 124.8" style="enable-background:new 0 0 412 124.8;" xml:space="preserve">
<style type="text/css">
	.st0{fill:#FFFFFF;stroke:#0884BD;stroke-width:4;stroke-miterlimit:10;}
	.st1{fill:none;}
	.st2{enable-background:new    ;}
	.st3{fill:#0884BD;}
	.st4{fill:#1E284A;}
	.st5{fill:#6F4C99;}
	.st6{fill:#5DC0CE;}
	.st7{fill:#1883B9;}
	.st8{fill:#B9E0E9;}
	.st9{fill:#FDFDFD;}
	.st10{fill:none;stroke:#0884BD;stroke-width:4;stroke-miterlimit:10;}
</style>
<g id="Calque_1">
	<circle class="st0" cx="64.8" cy="62.6" r="60.3"/>
	<circle class="st1" cx="65.8" cy="64.6" r="60.3"/>
	<g class="st2">
		<path class="st3" d="M155.5,91.4h-1.8c-1.3,0-2.4-0.5-3.3-1.4c-1-0.9-1.4-2-1.4-3.3V40.2c0-1.3,0.5-2.4,1.4-3.4
			c1-0.9,2.1-1.4,3.3-1.4h28.7c1.3,0,2.4,0.5,3.4,1.4s1.4,2.1,1.4,3.4v2.1c0,1.3-0.5,2.4-1.4,3.3c-0.9,1-2.1,1.4-3.4,1.4h-22.2v12.6
			h20.3c1.2,0,2.3,0.5,3.2,1.5s1.3,2.1,1.3,3.3v2.2c0,1.3-0.5,2.4-1.4,3.3s-2,1.4-3.3,1.4h-20.1v15.3c0,1.3-0.5,2.4-1.4,3.3
			S156.8,91.4,155.5,91.4z"/>
	</g>
	<g class="st2">
		<rect x="189.8" y="23.5" class="st1" width="216.8" height="80.9"/>
		<path class="st3" d="M235.7,91.4h-2c-1.1,0-2.1-0.3-2.9-1s-1.4-1.5-1.7-2.5v-0.1l-2.1-5.3c-0.2-0.7-0.5-1.3-0.8-2
			c-0.2,0-6.6,0-19.1,0l-2.9,7.3c-0.3,1-0.9,1.8-1.7,2.5c-0.8,0.7-1.8,1-2.9,1h-2c-1.5,0-2.8-0.6-3.8-1.9c-0.7-0.9-1.1-1.9-1.1-3
			c0-0.4,0.1-0.8,0.2-1.2c0,0,0,0,0-0.1c0.5-1.2,1-2.5,1.5-3.8l0.7-1.9c1.5-3.9,3-7.7,4.5-11.6c1.8-4.5,3.5-9,5.2-13.4l4.4-11.1
			c0.6-1.6,1.2-3.1,1.8-4.6c0.3-1,0.9-1.9,1.7-2.5c0.8-0.7,1.8-1,2.8-1h1.7c0.6,0,1.2,0.1,1.7,0.4l0.5,0.3c1.1,0.7,1.8,1.6,2.2,2.9
			c0,0,0,0,0,0.1c0.7,1.9,1.5,3.8,2.3,5.6c4.7,12.1,9.5,24.1,14.3,36.1l1.8,4.6c0.2,0.4,0.2,0.8,0.2,1.2c0,1.1-0.4,2-1.1,2.9
			C238.5,90.8,237.3,91.4,235.7,91.4z M221.6,69.1l-5-12.7l-5,12.7H221.6z"/>
		<path class="st3" d="M277.8,91.4h-26.5c-1.3,0-2.4-0.5-3.3-1.4c-1-0.9-1.4-2-1.4-3.3V40.2c0-1.3,0.5-2.4,1.4-3.4
			c1-0.9,2.1-1.4,3.3-1.4h1.8c1.3,0,2.4,0.5,3.4,1.4s1.4,2.1,1.4,3.4v39.6H278c1.2,0,2.3,0.5,3.2,1.5s1.3,2.1,1.3,3.3v2.2
			c0,1.3-0.5,2.4-1.4,3.3S279.1,91.4,277.8,91.4z"/>
		<path class="st3" d="M307.1,91.9c-4.5,0-8.5-1-12-2.9c-2.3-1.2-4.3-2.9-6-5c-1-1.1-1.8-2.3-2.5-3.6c-1.8-3.4-3-7-3.4-10.9
			c-0.3-2.3-0.4-4.5-0.4-6.8c0-6.2,1.2-11.6,3.7-16.2c2.9-5.1,7.1-8.6,12.6-10.5c2.5-0.8,5.3-1.2,8.5-1.2c2.8,0,5.5,0.5,8.1,1.4
			c2.9,1,5.5,2.6,7.8,4.7c2,1.8,3.5,4,4.6,6.4c0.8,1.6,1.2,3,1.2,4.3c0,1.9-0.7,3.4-2.2,4.5c-1,0.7-2.1,1.1-3.2,1.1
			c-0.5,0-0.9-0.1-1.4-0.2c-1.9-0.6-3.3-1.9-4.1-3.8c-0.4-0.9-0.9-1.8-1.5-2.6c-0.5-0.7-1.1-1.2-1.8-1.8c-0.8-0.5-1.6-1-2.4-1.4
			c-1.1-0.4-2.1-0.7-3.2-0.9c-0.8-0.1-1.6-0.1-2.4-0.1c-0.8,0-1.6,0-2.4,0.1c-1.1,0.2-2.2,0.5-3.3,0.9c-0.8,0.4-1.5,0.8-2.3,1.3
			c-0.7,0.5-1.2,1.1-1.8,1.8c-0.6,0.9-1.2,1.9-1.6,2.9c-0.6,1.4-1,3-1.3,5c-0.2,1.6-0.3,3.2-0.3,4.8c0,1.6,0.1,3.3,0.3,4.8
			c0.3,1.7,0.7,3.4,1.3,5c0.5,1,1,2,1.6,2.9c0.5,0.6,1.1,1.2,1.8,1.8c0.7,0.5,1.5,1,2.3,1.3c1.1,0.4,2.2,0.7,3.3,0.9
			c0.9,0.1,1.7,0.2,2.5,0.2c0.8,0,1.5,0,2.3-0.1c1.1-0.2,2.2-0.5,3.2-0.9c0.8-0.4,1.6-0.8,2.4-1.4c0.6-0.5,1.2-1.1,1.8-1.8
			c0.6-0.8,1.1-1.6,1.5-2.5c0.4-0.9,1-1.7,1.7-2.4c1-1.1,2.3-1.6,3.9-1.6c1.2,0,2.2,0.3,3.2,1c1,0.7,1.6,1.6,2,2.8
			c0.2,0.6,0.3,1.1,0.3,1.7c0,0.7-0.1,1.4-0.4,2.1c-0.6,1.8-1.5,3.6-2.7,5.2c-1.7,2.5-3.9,4.5-6.5,6.2
			C316.2,90.8,312,91.9,307.1,91.9z"/>
		<path class="st3" d="M358,91.9c-8.6,0-15.1-3.2-19.6-9.6c-2.9-4.2-4.5-9.5-4.8-15.8c-0.1-1.1-0.1-2.2-0.1-3.4
			c0-7.4,1.6-13.5,4.9-18.4c1.6-2.4,3.6-4.4,6.1-6.1c3.8-2.5,8.3-3.8,13.4-3.8c4.2,0,8.1,0.9,11.7,2.6c2.4,1.2,4.6,2.9,6.4,4.9
			l0.2,0.2c0.9,1,1.7,2.2,2.4,3.4c2.6,4.6,3.9,10,3.9,16.3v0.7c0,2.2-0.1,4.4-0.4,6.5c-0.6,5.4-2.5,10-5.5,13.9
			c-1.8,2.3-4,4.1-6.6,5.5C366.4,91,362.4,91.9,358,91.9z M358,80.3c0.8,0,1.7-0.1,2.5-0.2c1.1-0.2,2.3-0.5,3.4-0.9
			c0.8-0.4,1.5-0.8,2.2-1.3c0.7-0.5,1.2-1.2,1.8-1.8c0.7-0.9,1.2-1.9,1.7-2.9c0.6-1.6,1-3.3,1.3-4.9c0.2-1.4,0.2-2.7,0.2-4.1
			c0-1.9-0.1-3.9-0.2-5.8c-0.3-1.7-0.7-3.3-1.3-4.8c-0.5-1-1-2-1.7-2.9c-0.5-0.7-1.1-1.3-1.8-1.8c-0.7-0.5-1.4-1-2.2-1.3
			c-1.1-0.4-2.2-0.7-3.4-0.9c-0.8-0.1-1.7-0.1-2.5-0.1c-0.9,0-1.7,0-2.5,0.1c-1.1,0.2-2.3,0.5-3.4,0.9c-0.8,0.3-1.5,0.8-2.2,1.3
			c-0.7,0.5-1.3,1.1-1.8,1.8c-0.6,0.9-1.2,1.9-1.7,2.9c-0.6,1.6-1,3.2-1.3,4.9c-0.2,1.6-0.3,3.2-0.3,4.9c0,1.6,0.1,3.3,0.3,4.8
			c0.3,1.7,0.7,3.4,1.3,5c0.5,1,1.1,2,1.7,2.9c0.5,0.7,1.2,1.3,1.8,1.8c0.7,0.5,1.4,0.9,2.2,1.3c1.1,0.4,2.2,0.7,3.4,0.9
			C356.2,80.3,357.1,80.3,358,80.3z"/>
	</g>
</g>
<g id="Calque_2">
	<path class="st4" d="M110.3,63.6c-1.9-3.2-5-4.6-8.5-5.2c-9-1.5-18.5,2.9-23.2,10.7c-0.8,1.4-1.6,2.9-2,4.4
		c-0.2,0.6-0.1,1.2-0.3,1.7c-0.3,1.3-0.6,2.6-0.4,3.9c-0.1,0.3-0.1,0.5,0.3,0.6c0,0.1,0,0.2,0,0.3c-0.5,0-0.5-0.4-0.5-0.7
		c-1.3-5.1-1.3-10.1,0.4-15.1c1.5-4.4,3.5-8.4,6.2-12.1c0.2-0.2,0.4-0.5,0.4-0.9c-3.5,0.7-6.9,1.7-9.9,3.6c-4.6,2.7-7.9,6.6-10,11.5
		C60.4,71.8,60,77.6,61,83.5c1,5.8,3.3,11.1,6.7,15.9c2.7,3.8,5.7,7.3,9.3,10.2c2.4,2,5,3.8,7.6,5.5c1.1,0.7,2.4,1.1,3.4,2
		c-0.2,0.1-0.3,0.3-0.5,0.3c-3.1,1.3-6.3,2.4-9.6,3.1c-0.3-0.1-0.5-0.1-0.7-0.3c-1.9-1.2-3.6-2.7-5.2-4.2
		c-3.7-3.5-7.2-7.2-10.2-11.4c-3.5-4.8-6.6-9.9-9-15.4c-0.2-0.4-0.2-0.9-0.6-1.1c0-0.1,0-0.2-0.1-0.3c0,0,0.1-0.1,0.1-0.1
		c0,0-0.1-0.1-0.1-0.1c-0.6-2.1-1.1-4.3-1.4-6.5c-0.4-3.5-0.4-7,0-10.4c0.3-2.6,1.1-5.2,1.9-7.7c0.4-0.8,0.9-1.6,1.3-2.4
		c0.5-0.9,1-1.9,1.6-2.8c0,0,0,0,0,0c0.1,0,0.2-0.1,0.2-0.2c1.4-1.5,2.7-3.2,4.3-4.6c1.7-1.4,3.3-2.8,5.2-4c0.3-0.1,0.6-0.1,0.6-0.4
		c0-0.3-0.4-0.3-0.6-0.5c-0.3-0.2-0.6-0.3-0.9-0.4c-7.7-3-15.6-3.9-23.8-2.8c-5.7,0.7-11,2.6-16.1,5.2c-5.3,2.4-10.2,5.5-15,8.9
		c0-0.8,0.8-1.1,0.8-1.7c0.1-0.1,0.3-0.2,0.4-0.4c2.6-3,5.4-5.9,8.4-8.6c6.5-5.8,13.7-10.3,22-13.2c6.9-2.4,14-3.5,21.3-3.6
		c1.1,0,2.3,0,3.4,0c0.5,0,1,0,1.5,0c0.1,0,0.2,0,0.4,0c0.4,0,0.7,0,1.1,0c0.1,0,0.3,0,0.4,0c0.1,0,0.2,0,0.3,0c1.3,0.2,2.7-0.3,4,0
		c0.2,0,0.5,0.1,0.7,0.1c4.9,0,9.7,0.3,14.5,1.1c1.9,0.3,3.8,0.6,5.6,1.3c-0.3,0.5-0.6,0.9-1,1.4c-3.2,5-6.5,10-9.7,14.9
		c-0.1,0.2-0.5,0.4-0.3,0.7c0.2,0.2,0.4,0,0.7,0c6.3-0.3,12.6,0.2,18.7,2.1c1,0.4,1.8,1,2.5,1.6c2.4,2,4.2,4.4,5.2,7.3
		C110.4,62.6,110.7,63.1,110.3,63.6z M68.9,32.8C68.9,32.8,68.9,32.8,68.9,32.8c-2.4,0-4.9,0-7.3,0c-0.3,0-0.7-0.1-0.6,0.5
		c0.3,3.2,1.7,5.6,4.6,7c6.1,2.8,10.9-2.1,11.3-6.6c0.1-0.7-0.1-0.9-0.8-0.9C73.6,32.8,71.2,32.8,68.9,32.8z"/>
	<path class="st5" d="M24.4,50.1c5.1-2.6,10.4-4.4,16.1-5.2c8.2-1.1,16.1-0.2,23.8,2.8c0.3,0.1,0.6,0.3,0.9,0.4
		c0.2,0.1,0.6,0.1,0.6,0.5c0,0.3-0.4,0.3-0.6,0.4c-0.3-0.4-0.6-0.1-0.9,0c-2,0.5-3.9,1.1-5.9,1.8c-5.3,1.8-10.3,4.2-15,7.2
		c-0.1,0.1-0.2,0.1-0.3,0.2c0,0,0,0,0,0c-0.1,0-0.3,0.1-0.4,0.1c-4.4,2.5-8.7,5-12.5,8.4c-3,2.7-5.9,5.3-8.4,8.5
		c-1.4,1.9-2.9,3.7-4.3,5.6c-2.1,3-4,6.1-5.5,9.4c-1.4-2.5-2.5-5.1-3.3-7.8c0.1-0.1,0.1-0.1,0.1-0.2c0.3-2.4,0.8-4.8,1.4-7.2
		c1.1-4.2,2.7-8.2,4.8-12c1-1.8,2-3.5,3.2-5.2c1.7-2.5,3.8-4.8,5.9-7C24.3,50.7,24.7,50.6,24.4,50.1z"/>
	<path class="st6" d="M62.8,66.3c2-5,5.4-8.8,10-11.5c3.1-1.8,6.4-2.9,9.9-3.6c0,0.5-0.2,0.7-0.4,0.9c-2.7,3.7-4.8,7.8-6.2,12.1
		c-1.7,5-1.7,10-0.4,15.1c0.1,0.3,0.1,0.7,0.5,0.7c0.9,4.8,3.4,8.8,6.4,12.6c4.9,6.1,11,10.8,17.7,14.8c0.6,0.3,1.2,0.6,1.8,1.1
		c-2,1.6-4,3.2-6.2,4.4c-1.9-1.2-3.8-2.5-5.6-3.8c-5.9-4.4-11.1-9.6-15.7-15.3c-2.5-3.1-4.6-6.6-6.4-10.2c-0.9-1.9-1.7-3.8-2.5-5.7
		C64.3,74.2,63,70.4,62.8,66.3z"/>
	<path class="st7" d="M62.8,66.3c0.2,4.1,1.4,7.9,2.9,11.7c0.8,1.9,1.6,3.9,2.5,5.7c1.8,3.6,3.8,7.1,6.4,10.2
		c4.6,5.7,9.7,10.9,15.7,15.3c1.8,1.3,3.7,2.6,5.6,3.8c-2.4,1.6-4.9,2.9-7.5,4.1c-0.1,0-0.2,0-0.3,0c-1-0.9-2.3-1.3-3.4-2
		c-2.7-1.6-5.2-3.5-7.6-5.5c-3.6-2.9-6.7-6.4-9.3-10.2C64.3,94.6,62,89.3,61,83.5C60,77.6,60.4,71.8,62.8,66.3z"/>
	<path class="st8" d="M52.7,63.1c-0.9,2.5-1.6,5-1.9,7.7c-0.5,3.5-0.5,7,0,10.4c0.3,2.2,0.8,4.3,1.4,6.5c0,0.1,0,0.1,0,0.2
		c0,0.1,0,0.2,0.1,0.3c0,0.1-0.1,0.3,0,0.4c0.5,2.3,0.7,4.7,1.4,7c0.8,2.6,1.4,5.3,2.3,7.8c1.5,4.1,3.2,8.1,5.3,12
		c1.2,2.2,2.5,4.4,3.7,6.6c-3.1,0.2-6.2-0.1-9.2-0.6c-0.8-0.1-1.6,0.1-2.3-0.4c-1.7-2.9-2.9-6-4-9.1c-3.1-8.6-4.9-17.4-4.4-26.6
		c0-0.7,0.2-1.4,0-2.1l0,0c0.2,0,0.2-0.2,0.2-0.4c0.1-2.2,0.9-4.2,1.2-6.4c0.2-1.9,1.2-3.5,1.8-5.2c0.7-1.7,1.3-3.4,2.3-4.9
		C51.2,65.2,51.5,63.9,52.7,63.1z"/>
	<path class="st7" d="M34.1,113.8c-5.4-3.1-10.1-7.2-14.2-11.8c-0.1-0.1-0.1-0.2-0.2-0.3c0.1-0.9,0.2-1.8,0.4-2.7
		c1.6-8.8,4.9-17.1,9.3-24.8c3.1-5.3,6.8-10,11.4-14.2c0.5-0.5,1.1-0.9,1.8-1.1c-0.4,0.6-0.8,1.2-1.2,1.7c-3.5,5-5.9,10.4-7.5,16.3
		c-0.5,2-1,4.1-1.4,6.1c-0.2,1-0.5,2-0.5,3c0,0.8-0.2,1.7-0.1,2.5c-0.3,1-0.3,2.1-0.3,3.1c0,2.9-0.1,5.8,0.1,8.7
		c0.2,2.6,0.6,5.2,1,7.8C33.2,110,33.7,111.9,34.1,113.8z"/>
	<path class="st6" d="M34.1,113.8c-0.4-1.9-1-3.8-1.3-5.7c-0.5-2.6-0.8-5.1-1-7.8c-0.2-2.9-0.2-5.8-0.1-8.7c0-1,0-2.1,0.3-3.1
		c0.1,0.3-0.1,0.7,0.1,1.1c0.1-0.3,0.2-0.5,0.2-0.7c1.7-5.6,4.3-10.9,7.5-15.8c3.6-5.5,8.2-10.1,13.5-14c0.7-0.5,1.2-1.2,2.2-1.3
		c-0.5,0.9-1,1.9-1.6,2.8c-0.4,0.8-0.9,1.6-1.3,2.4c-1.1,0.8-1.5,2.2-2.2,3.3c-1,1.5-1.6,3.3-2.3,4.9c-0.7,1.7-1.6,3.3-1.8,5.2
		c-0.3,2.1-1.1,4.2-1.2,6.4c-0.2,0.1-0.3,0.2-0.2,0.4c0,0,0,0,0,0c-0.2,0-0.2,0.2-0.3,0.4c-3.6,6-5.9,12.4-7.6,19.2
		c-1,3.8-1.4,7.8-1.8,11.7C34.8,114.2,34.5,114,34.1,113.8z"/>
	<path class="st4" d="M35.2,114.4c0.4-3.9,0.9-7.9,1.8-11.7c1.7-6.7,4-13.2,7.6-19.2c0.1-0.1,0.1-0.4,0.3-0.4c0.2,0.7,0,1.4,0,2.1
		c-0.5,9.2,1.2,18,4.4,26.6c1.1,3.1,2.4,6.2,4,9.1c-3.5-0.5-6.8-1.6-10.1-2.8C40.5,117.2,37.8,115.9,35.2,114.4z"/>
	<path class="st4" d="M42.7,58.9c-0.7,0.2-1.3,0.6-1.8,1.1c-4.5,4.1-8.3,8.9-11.4,14.2c-4.5,7.7-7.7,16-9.3,24.8
		c-0.2,0.9-0.3,1.8-0.4,2.7c-2.3-2.5-4.2-5.2-5.9-8.1c-0.7-1.1-1.2-2.2-1.9-3.4c1.5-3.3,3.5-6.4,5.5-9.4c1.3-1.9,2.9-3.7,4.3-5.6
		c2.4-3.2,5.4-5.9,8.4-8.5c3.8-3.4,8.2-5.8,12.5-8.4c0.1-0.1,0.3-0.1,0.4-0.1C43.1,58.5,42.8,58.7,42.7,58.9z"/>
	<path class="st6" d="M69.3,31.6c-0.1,0-0.2,0-0.3,0c-0.1-0.1-0.3-0.1-0.4,0c-0.4,0-0.7,0-1.1,0c-0.1-0.1-0.2-0.1-0.4,0
		c-0.5,0-1,0-1.5,0c-1.1-0.2-2.3-0.2-3.4,0C55,31.8,47.9,32.9,41,35.2c-8.3,2.8-15.5,7.3-22,13.2c-3,2.7-5.8,5.5-8.4,8.6
		c-0.1,0.1-0.3,0.2-0.4,0.4c0.4-1.4,1.3-2.6,2-3.9c4.1-7.1,9.4-13.2,16-18c1.1-0.8,2.2-1.6,3.4-2.3c0.3-0.2,0.6-0.3,0.7-0.7
		c0.3-0.1,0.6-0.2,0.9-0.3c2.9-1.3,6-2.4,9.1-3.3c0.6-0.1,1.2-0.3,1.8-0.4c3.2-0.5,6.4-0.4,9.5-0.3c1.7,0.1,3.5,0.2,5.2,0.4
		c3.3,0.5,6.5,1.4,9.6,2.5C68.8,31.1,69.3,31.1,69.3,31.6z"/>
	<path class="st7" d="M69.3,31.6c0-0.5-0.4-0.4-0.7-0.5c-3.1-1.1-6.3-2-9.6-2.5c-1.7-0.3-3.5-0.4-5.2-0.4c-3.2-0.1-6.4-0.2-9.5,0.3
		c-0.6,0.1-1.2,0.2-1.8,0.4c-0.1-0.1-0.2-0.2-0.3-0.2c-2.2,0-4.5,0-6.7,0.1c-3.5,0.1-7,0.4-10.5,0.3c2.6-1.4,5.4-2.6,8.1-3.7
		c5.7-2.3,11.6-3.8,17.7-4.7c2.5-0.4,5.1-0.7,7.7-0.6c0,0.2,0.2,0.4,0.4,0.5c1.8,1.3,3.6,2.7,5.4,4c1.1,0.8,2.1,1.7,3.2,2.4
		c2.1,1.4,4.1,2.9,6,4.6C71.9,31.3,70.6,31.8,69.3,31.6z"/>
	<path class="st6" d="M73.3,31.6c-1.9-1.7-3.9-3.2-6-4.6c-1.1-0.7-2.1-1.6-3.2-2.4c-1.8-1.4-3.6-2.7-5.4-4c-0.2-0.1-0.3-0.2-0.4-0.5
		c1.4-0.3,2.7-0.2,4.1-0.1c2.6,0.2,5.1,0.2,7.7,0.7c5.5,1,10.8,2.6,15.6,5.7c2.7,1.7,5.2,3.6,7.4,5.9c0.5,0.5,0.9,1,1.2,1.6
		c-0.1,0.1-0.2,0.2-0.2,0.2c-1.8-0.7-3.7-1-5.6-1.3c-4.8-0.7-9.6-1.1-14.5-1.1C73.8,31.7,73.5,31.6,73.3,31.6z"/>
	<path class="st8" d="M94.1,34c0.1-0.1,0.2-0.2,0.2-0.2c1.1,1.4,2.9,1.4,4.4,2.2c0.8,0.5,1.7,0.9,2.5,1.3c0.2,0.1,0.4,0.2,0.4,0.5
		c0.4,4.9,0.8,9.9,1.2,14.8c0,0.3,0.1,0.6-0.3,0.6c-6.1-2-12.3-2.4-18.7-2.1c-0.2,0-0.5,0.2-0.7,0c-0.2-0.3,0.1-0.5,0.3-0.7
		c3.2-5,6.5-10,9.7-14.9C93.5,35,93.8,34.5,94.1,34z M97.4,41.6c-1.3,0-2.1,0.8-2.1,2c0,1.2,0.8,2.1,2,2.1c1.2,0,2.1-0.9,2.1-2.1
		C99.3,42.3,98.5,41.5,97.4,41.6z"/>
	<path class="st5" d="M64.9,122.1c-1.2-2.2-2.5-4.4-3.7-6.6c-2.1-3.9-3.8-7.9-5.3-12c-0.9-2.6-1.6-5.2-2.3-7.8
		c-0.7-2.3-0.9-4.7-1.4-7c0-0.1,0-0.3,0-0.4c0.5,0.2,0.4,0.8,0.6,1.1c2.4,5.5,5.5,10.5,9,15.4c3,4.1,6.5,7.9,10.2,11.4
		c1.6,1.5,3.3,3,5.2,4.2c0.2,0.1,0.5,0.2,0.7,0.3c-2.8,0.7-5.7,1.1-8.6,1.4C67.9,122,66.4,122.2,64.9,122.1z"/>
	<path class="st4" d="M24.9,29c3.5,0.1,7-0.2,10.5-0.3c2.2-0.1,4.5-0.1,6.7-0.1c0.1,0,0.2,0.1,0.3,0.2c-3.1,0.9-6.1,2-9.1,3.3
		c-0.3,0.1-0.6,0.2-0.9,0.3c-1.9,0-3.8,0-5.7,0c-2.4,0-4.8,0-7.2,0.1c-0.3,0-0.6,0.1-0.7-0.3C20.7,31,22.7,29.8,24.9,29z"/>
	<path class="st6" d="M76.3,79.8c-0.4,0-0.4-0.3-0.3-0.6C76.3,79.3,76.3,79.5,76.3,79.8z"/>
	<path class="st8" d="M42.7,58.9c0.1-0.2,0.4-0.4,0.4-0.7c0,0,0,0,0,0c0.1,0,0.2-0.1,0.3-0.2c4.7-3,9.7-5.4,15-7.2
		c1.9-0.7,3.9-1.3,5.9-1.8c0.3-0.1,0.6-0.4,0.9,0c-1.8,1.2-3.5,2.6-5.2,4c-1.6,1.4-2.9,3.1-4.3,4.6c-0.1,0.1-0.1,0.1-0.2,0.2
		c0,0,0,0,0,0c-0.9,0.1-1.5,0.8-2.2,1.3c-5.3,3.9-9.9,8.5-13.5,14c-3.2,4.9-5.8,10.1-7.5,15.8c-0.1,0.2-0.1,0.4-0.2,0.7
		c-0.2-0.4-0.1-0.8-0.1-1.1c-0.2-0.8,0-1.7,0.1-2.5c0-1,0.3-2,0.5-3c0.4-2.1,0.9-4.1,1.4-6.1c1.6-5.9,4-11.3,7.5-16.3
		C41.9,60,42.3,59.5,42.7,58.9z"/>
	<path class="st9" d="M68.9,32.8c2.4,0,4.7,0,7.1,0c0.8,0,0.9,0.3,0.8,0.9c-0.4,4.5-5.2,9.4-11.3,6.6c-2.9-1.3-4.3-3.8-4.6-7
		c-0.1-0.6,0.3-0.5,0.6-0.5C64,32.8,66.4,32.8,68.9,32.8C68.9,32.8,68.9,32.8,68.9,32.8z"/>
	<path class="st7" d="M62.3,31.6c1.1-0.2,2.3-0.2,3.4,0C64.6,31.6,63.4,31.6,62.3,31.6z"/>
	<path class="st7" d="M67.2,31.6c0.1-0.1,0.2-0.1,0.4,0C67.4,31.6,67.3,31.6,67.2,31.6z"/>
	<path class="st7" d="M68.6,31.6c0.1-0.1,0.3-0.1,0.4,0C68.8,31.6,68.7,31.6,68.6,31.6z"/>
	<path class="st6" d="M55.5,57.9c0.1-0.1,0.1-0.1,0.2-0.2C55.7,57.8,55.6,57.9,55.5,57.9z"/>
	<path class="st5" d="M52.1,87.8c0-0.1,0-0.1,0-0.2C52.1,87.7,52.1,87.7,52.1,87.8C52.2,87.8,52.1,87.8,52.1,87.8z"/>
	<path class="st4" d="M43.4,58.1c0,0.1-0.1,0.2-0.3,0.2C43.2,58.2,43.3,58.1,43.4,58.1z"/>
	<path class="st4" d="M44.9,83.2c0-0.2,0.1-0.3,0.2-0.4C45.1,82.9,45.1,83.2,44.9,83.2z"/>
	<path class="st4" d="M97.4,41.6c1.1,0,1.9,0.8,1.9,2c0,1.2-0.9,2.1-2.1,2.1c-1.1,0-2-0.8-2-2.1C95.3,42.4,96.1,41.6,97.4,41.6z"/>
	<path class="st7" d="M102.5,53.2c0.4,0,0.3-0.3,0.3-0.6c-0.4-4.9-0.8-9.9-1.2-14.8c0.1,0,0.2,0,0.3-0.1c0.1,0,0.1,0.1,0.2,0.1
		c2.8,1.7,5.5,3.5,7.7,6c5,5.7,5.5,13.3,2.5,19.6c-0.4,0.8-0.6,1.6-1.2,2.3c-0.3-0.8-0.5-1.5-0.7-2.2c0.4-0.5,0-1-0.1-1.5
		c-1-2.9-2.8-5.3-5.2-7.3C104.3,54.2,103.5,53.6,102.5,53.2z"/>
	<path class="st4" d="M18.2,57.9c-1.1,1.7-2.2,3.4-3.2,5.2c-2.1,3.8-3.7,7.8-4.8,12c-0.6,2.4-1.1,4.7-1.4,7.2c0,0.1-0.1,0.1-0.1,0.2
		c-1.2-3.3-2-6.6-2.5-10c-0.1-0.6-0.4-1.2-0.4-1.9c0-0.6,0.2-1,0.6-1.5c3.2-3.7,6.6-7.3,10.5-10.3C17.3,58.4,17.6,58,18.2,57.9z"/>
	<circle class="st10" cx="64.8" cy="62.6" r="60.3"/>
</g>
</svg>
